<svg width="587" height="814" viewBox="0 0 587 814" fill="none" xmlns="http://www.w3.org/2000/svg">
<g clip-path="url(#clip0_121_1828)">
<rect width="586.667" height="814" transform="translate(0.333008)" fill="#1A1A1A"/>
<g clip-path="url(#clip1_121_1828)">
<path d="M-667.821 929.631C-473.425 895.544 -274.825 906.214 -81.1206 940.711C2.94278 955.69 87.1343 965.565 171.71 948.38C279.096 926.553 358.29 861.944 456.603 820.65C616.041 753.681 743.008 916.14 891.733 940.839C950.45 950.586 998.863 925.707 1055.07 914.857C1127.21 900.93 1189.54 921.423 1254.36 952.74" stroke="url(#paint0_linear_121_1828)" stroke-miterlimit="10"/>
<path d="M-667.821 895.287C-473.271 855.327 -282.437 878.975 -90.7571 922.244C-6.43744 941.275 78.1129 951.689 163.176 930.631C207.335 919.705 249.059 901.879 289.348 880.95C349.653 849.633 403.013 797.309 463.523 769.327C626.165 694.099 742.213 883.797 886.889 915.293C952.731 929.631 996.531 898.134 1057.25 882.668C1129.42 864.304 1192.34 893.928 1254.36 928.99" stroke="url(#paint1_linear_121_1828)" stroke-miterlimit="10"/>
<path d="M-667.821 860.072C-477.115 814.75 -302.197 852.582 -117.411 902.931C-31.6053 926.297 54.1496 940.429 141.519 916.191C187.754 903.367 230.785 882.232 272.099 858.148C336.838 820.419 392.684 760.273 457.859 726.057C629.035 636.21 730.552 856.506 878.483 891.594C948.015 908.086 988.739 870.28 1050.66 850.761C1125.6 827.139 1192.21 866.381 1254.33 905.239" stroke="url(#paint2_linear_121_1828)" stroke-miterlimit="10"/>
<path d="M-667.821 824.471C-485.701 774.251 -331.03 823.856 -158.443 880.642C-72.8424 908.804 12.5281 929.887 101.743 906.804C237.474 871.691 325.946 764.838 440.021 692.842C625.268 575.961 707.819 836.244 869.436 869.382C939.403 883.745 978.975 839.091 1040.82 817.52C1119.14 790.205 1191.44 839.399 1254.36 881.437" stroke="url(#paint3_linear_121_1828)" stroke-miterlimit="10"/>
<path d="M-667.821 789.05C-491.109 731.931 -355.429 796.129 -193.145 859.764C-105.519 894.107 -16.8941 921.962 76.4726 893.569C214.895 851.479 305.11 736.83 419.543 657.088C614.094 521.535 677.961 811.185 845.063 845.247C916.183 859.738 960.086 810.185 1020.98 785.998C1106.99 751.834 1185.96 809.98 1254.36 857.763" stroke="url(#paint4_linear_121_1828)" stroke-miterlimit="10"/>
<path d="M-667.821 754.271C-588.653 724.082 -511.381 717.131 -429.497 741.498C-353.891 763.992 -288.972 809.415 -217.621 841.553C-133.353 879.513 -46.7776 912.805 45.4358 882.565C191.906 834.525 280.07 704.076 399.604 617.538C593.155 477.393 649.462 776.123 808.362 816.417C888.812 836.808 935.431 777.688 1003.83 750.654C1096.28 714.105 1182.65 782.33 1254.36 834.013" stroke="url(#paint5_linear_121_1828)" stroke-miterlimit="10"/>
<path d="M-667.821 720.697C-596.572 688.405 -525.58 678.351 -450.333 703.589C-376.214 728.443 -316.011 780.766 -247.735 816.982C-168.311 859.123 -86.5796 901.417 4.81368 874.435C158.05 829.242 254.236 682.737 373.155 587.939C575.932 426.275 609.583 751.372 775.71 788.794C860.953 808.005 914.03 739.446 987.227 712.72C1085.69 676.786 1180.14 755.297 1254.33 810.236" stroke="url(#paint6_linear_121_1828)" stroke-miterlimit="10"/>
<path d="M-667.821 688.815C-503.155 600.327 -404.252 705 -270.135 789.589C-193.965 837.629 -111.952 893.21 -18.6113 862.277C132.549 812.185 231.99 661.576 346.577 561.418C420.543 496.784 491.356 481.779 554.711 563.547C609.66 634.44 644.951 736.547 742.726 757.092C827.866 774.969 887.992 704.794 961.034 676.196C1068.52 634.081 1174.93 726.16 1254.36 786.511" stroke="url(#paint7_linear_121_1828)" stroke-miterlimit="10"/>
<path d="M-667.821 659.165C-508.332 558.853 -408.942 663.013 -283.155 757.554C-216.058 807.979 -140.093 877.821 -49.443 854.147C5.73636 839.732 54.6623 798.771 96.7965 762.607C177.784 693.124 245.009 611.151 321.897 537.744C395.606 467.364 468.264 439.664 531.466 532.512C578.572 601.712 614.709 708.616 709.408 723.723C799.443 738.086 865.335 660.781 944.299 634.055C1058.19 595.48 1173.01 699.152 1254.36 762.709" stroke="url(#paint8_linear_121_1828)" stroke-miterlimit="10"/>
<path d="M-667.821 632.286C-605.645 587.529 -537.036 559.443 -461.277 586.708C-393.821 610.997 -341.384 667.424 -289.536 714.438C-231.102 767.428 -157.29 861.508 -67.5885 843.015C-17.0992 832.602 27.316 793.924 65.042 760.991C148.311 688.277 221.302 604.046 296.165 523.022C366.235 447.153 443.891 392.573 509.245 498.168C553.25 569.241 587.414 681.659 687.213 685.609C775.787 689.123 842.346 618.333 922.18 592.222C1044.64 552.185 1168.86 669.861 1254.38 738.984" stroke="url(#paint9_linear_121_1828)" stroke-miterlimit="10"/>
<path d="M-667.821 607.611C-604.005 557.853 -532.91 524.818 -452.306 553.493C-384.287 577.679 -327.954 632.824 -277.67 682.403C-225.387 733.983 -155.214 835.295 -69.6131 818.008C-21.7124 808.338 20.4218 769.583 55.7387 738.138C136.496 666.193 208.616 584.169 281.582 504.581C348.397 431.713 426.873 365.283 493.15 470.391C536.514 539.155 569.448 648.906 667.376 650.265C755.182 651.471 828.404 587.682 910.391 565.83C1038 531.794 1162.71 643.366 1254.36 714.643" stroke="url(#paint10_linear_121_1828)" stroke-miterlimit="10"/>
<path d="M-667.821 580.116C-597.418 524.689 -522.299 494.885 -436.237 533.359C-365.065 565.189 -302.735 625.412 -247.658 678.735C-198.245 726.596 -137.018 807.364 -59.1053 782.202C-11.5633 766.839 29.7764 725.801 65.247 692.816C136.342 626.72 202.414 555.134 269.485 485.011C333.404 418.145 410.958 353.1 479.669 446.333C528.544 512.66 559.657 618.743 657.227 623.591C744.135 627.9 828.173 570.523 911.954 555.134C1038.66 531.845 1156.51 619.256 1254.38 686.609" stroke="url(#paint11_linear_121_1828)" stroke-miterlimit="10"/>
<path d="M-667.821 549.569C-592.113 491.756 -514.97 466.339 -426.524 511.993C-358.76 546.952 -296.225 603.251 -240.482 654.626C-188.532 702.512 -124.741 785.024 -46.2395 748.5C-5.25858 729.443 28.4693 693.15 60.6594 662.448C128.371 597.814 192.418 529.28 258.541 463.056C326.945 394.548 404.448 341.429 475.415 432.508C524.264 495.219 559.452 593.941 652.076 598.045C737.292 601.841 821.945 560.982 905.112 547.388C1033.49 526.408 1147.46 591.915 1254.38 655.036" stroke="url(#paint12_linear_121_1828)" stroke-miterlimit="10"/>
<path d="M-667.821 516.533C-580.503 453.489 -497.209 439.228 -404.226 497.886C-337.411 540.027 -275.645 597.121 -215.853 648.598C-165.927 691.585 -109.774 759.067 -39.9091 719.978C-2.49064 699.049 28.6487 661.73 58.4553 631.542C121.913 567.241 183.705 501.375 249.007 438.92C316.668 374.208 394.119 327.502 466.137 409.27C519.907 470.314 557.146 567.677 649.539 576.5C730.962 584.271 819.69 552.416 899.781 540.002C1027.77 520.175 1140.39 565.445 1254.33 620.718" stroke="url(#paint13_linear_121_1828)" stroke-miterlimit="10"/>
<path d="M-667.821 481.625C-573.224 417.939 -486.239 411.117 -391.437 477.752C-319.907 528.024 -255.629 591.555 -187.609 646.649C-140.836 684.506 -89.0912 736.419 -30.6313 692.919C8.01733 664.167 39.5667 620.846 71.6543 585.554C125.911 525.92 181.526 467.082 241.216 412.861C314.362 346.405 393.684 315.011 467.342 395.112C521.265 453.745 562.579 545.259 651.179 555.186C735.037 564.573 825.713 542.541 908.777 531.127C1030.92 514.353 1139.64 541.669 1254.36 584.169" stroke="url(#paint14_linear_121_1828)" stroke-miterlimit="10"/>
<path d="M-667.821 445.384C-559.974 377.902 -468.299 385.083 -369.294 464.184C-294.175 524.202 -230.154 594.043 -151.857 650.676C-98.1383 689.508 -59.4127 711.437 -10.3843 657.319C72.9358 565.342 140.417 460.516 238.038 381.211C309.697 323.014 388.532 301.315 459.935 369.053C520.265 426.275 560.862 514.122 647.949 534.744C728.348 553.749 829.25 535 910.084 523.971C1029.39 507.684 1137.05 517.251 1254.38 546.183" stroke="url(#paint15_linear_121_1828)" stroke-miterlimit="10"/>
<path d="M-667.821 408.424C-547.057 337.915 -448.718 360.82 -346.894 451.077C-273.954 515.738 -213.29 590.606 -130.508 643.725C-69.7413 682.737 -37.7562 689.636 3.81419 627.515C69.6809 529.101 135.983 428.507 231.938 355.921C309.518 297.211 388.122 284.028 463.933 351.714C527.057 408.09 571.985 498.784 661.251 518.739C740.419 536.436 832.812 528.024 912.621 517.149C1028.49 501.349 1137.34 494.219 1254.38 507.274" stroke="url(#paint16_linear_121_1828)" stroke-miterlimit="10"/>
<path d="M-667.821 371.336C-536.19 298.622 -433.213 334.453 -328.877 433.944C-255.039 504.35 -194.17 590.35 -103.264 640.262C-35.7828 677.325 -12.1015 658.063 20.0886 594.531C71.2955 493.501 136.06 391.393 230.913 325.578C311.209 269.844 392.428 268.125 467.854 332.17C533.644 388.059 581.57 476.393 669.709 501.169C858.749 554.314 1064.47 474.88 1254.38 468.288" stroke="url(#paint17_linear_121_1828)" stroke-miterlimit="10"/>
<path d="M-667.821 334.684C-602.339 299.776 -540.778 279.052 -467.504 304.47C-406.892 325.502 -357.248 369.643 -312.782 414.605C-239.431 488.832 -176.717 588.708 -78.9934 632.824C-5.69427 665.911 11.6567 621.334 36.3887 559.136C76.7032 457.669 137.572 353.715 232.682 294.313C439.97 164.812 514.781 426.84 679.704 483.651C872.306 550.005 1066.04 466.287 1254.38 429.789" stroke="url(#paint18_linear_121_1828)" stroke-miterlimit="10"/>
<path d="M-667.821 299.058C-599.52 262.893 -536.575 242.733 -461.969 270.203C-399.382 293.235 -348.791 340.301 -303.453 387.982C-232.153 462.953 -158.418 592.735 -52.0572 622.59C22.3952 643.494 34.1334 573.781 52.9964 517.662C86.0066 419.427 142.903 311.113 238.09 259.148C435.69 151.27 535.207 393.83 684.394 462.389C880.123 552.339 1069.65 460.106 1254.36 392.445" stroke="url(#paint19_linear_121_1828)" stroke-miterlimit="10"/>
<path d="M-667.821 265.073C-598.853 227.523 -536.729 207.133 -460.815 233.73C-397.87 255.788 -346.433 305.008 -301.684 352.971C-229.077 430.815 -151.242 578.68 -38.3457 600.738C38.3877 615.742 49.152 539.027 65.9134 481.42C94.6948 382.595 146.517 273.204 245.983 227.241C443.865 135.804 550.585 368.668 696.542 443.973C772.532 483.164 870.922 503.247 955.575 489.602C1062.88 472.315 1161.02 408.68 1254.38 357.049" stroke="url(#paint20_linear_121_1828)" stroke-miterlimit="10"/>
<path d="M-667.821 233.269C-594.368 190.769 -523.376 166.274 -442.055 203.003C-381.032 230.576 -332.619 281.258 -288.87 330.452C-223.311 404.166 -140.683 559.469 -30.4007 571.114C52.6118 579.885 63.0942 489.166 80.8807 427.917C108.381 333.247 157.896 231.756 257.568 195.232C453.963 123.236 567.525 339.121 709.229 423.48C780.836 466.108 874.434 495.296 958.189 484.857C1070.39 470.853 1167.5 389.598 1254.33 324.065" stroke="url(#paint21_linear_121_1828)" stroke-miterlimit="10"/>
<path d="M-667.821 204.26C-598.469 160.042 -530.193 129.263 -448.257 162.376C-382.595 188.922 -330.312 245.272 -285.205 297.929C-220.722 373.208 -139.632 527.767 -25.0698 530.486C56.6101 532.41 71.7313 440.382 91.0043 378.928C120.811 283.976 167.943 191.872 272.484 165.018C472.672 113.566 583.826 310.959 727.067 405.654C797.188 452.026 890.708 490.269 976.13 477.932C1087.85 461.773 1177.6 368.848 1254.36 294.313" stroke="url(#paint22_linear_121_1828)" stroke-miterlimit="10"/>
<path d="M-667.821 178.637C-604.159 132.444 -538.036 93.7399 -457.073 120.876C-393.975 142.011 -344.28 193.77 -301.813 242.861C-232.255 323.244 -162.288 466.236 -42.5488 475.367C48.4857 482.292 72.1413 393.753 98.3342 323.706C134.061 228.139 183.858 147.217 293.269 132.418C487.23 106.18 598.998 273.076 733.756 378.133C801.314 430.789 892.784 481.215 981.179 472.597C1098.43 461.157 1184.72 352.048 1254.36 268.408" stroke="url(#paint23_linear_121_1828)" stroke-miterlimit="10"/>
<path d="M-667.821 158.426C-604.466 114.182 -539.138 77.7607 -459.79 103.615C-397.998 123.749 -348.816 173.225 -306.861 220.829C-239.278 297.467 -167.747 444.588 -51.4421 448.615C38.4903 451.719 69.2709 372.003 101.512 301.93C142.852 212.134 198.8 129.93 304.905 115.593C492.074 90.3029 608.993 246.221 741.829 345.943C807.004 394.856 898.935 444.614 982.64 442.972C1099.66 440.664 1186.34 329.272 1254.36 247.965" stroke="url(#paint24_linear_121_1828)" stroke-miterlimit="10"/>
<path d="M-667.821 144.601C-605.466 101.896 -541.086 66.4753 -463.301 90.0208C-403.201 108.206 -354.737 154.527 -313.448 199.874C-246.941 272.947 -175.718 418.529 -63.1803 419.222C25.0606 419.76 62.6329 349.483 101.153 281.027C148.208 197.412 209.974 117.183 312.311 103.127C492.714 78.3763 614.58 218.213 747.493 311.292C812.027 356.485 902.959 406.91 982.819 414.041C1099.25 424.428 1187.34 311.933 1254.33 233.551" stroke="url(#paint25_linear_121_1828)" stroke-miterlimit="10"/>
<path d="M-667.821 136.035C-608.003 95.1249 -544.059 59.7553 -469.35 78.7354C-405.662 94.894 -355.07 143.088 -311.705 189.743C-245.787 260.662 -179.69 392.393 -69.5619 387.494C13.7582 383.801 56.2257 320.5 99.7438 258.199C153.18 181.664 217.689 109.899 315.541 95.997C493.227 70.733 617.707 191.615 755.95 277.846C819.818 317.704 900.857 364.975 974.438 384.032C1093.72 414.913 1184.55 303.059 1254.36 224.061" stroke="url(#paint26_linear_121_1828)" stroke-miterlimit="10"/>
<path d="M-667.821 131.623C-609.643 91.3289 -547.057 55.1899 -473.579 70.1431C-412.402 82.6084 -362.682 125.493 -320.06 168.557C-253.22 236.064 -190.992 357.306 -84.2986 352.561C-3.36204 348.97 45.3076 295.672 94.823 238.245C154.154 169.455 222.635 104.102 316.719 90.4056C486.897 65.6289 617.297 162.273 757.155 239.168C826.559 277.333 899.55 323.988 972.414 354.869C1089.72 404.602 1181.93 296.98 1254.33 218.47" stroke="url(#paint27_linear_121_1828)" stroke-miterlimit="10"/>
<path d="M-667.821 130.264C-545.417 43.4172 -439.543 43.8532 -328.39 146.833C-260.14 210.057 -202.141 318.576 -99.1891 314.883C-20.8923 312.062 33.5438 268.869 88.7232 218.162C153.744 158.426 225.377 100.639 315.72 87.1995C477.875 63.0641 615.17 132.957 756.284 199.259C833.965 235.757 896.808 281.54 969.159 325.938C1083.41 396.035 1176.68 295.954 1254.38 215.802" stroke="url(#paint28_linear_121_1828)" stroke-miterlimit="10"/>
<path d="M-667.821 130.854C-553.9 47.3414 -449.052 31.1314 -336.232 124.082C-266.188 181.792 -212.239 276.333 -113.464 274.384C50.9973 271.152 152.283 109.95 313.029 85.6349C467.008 62.3459 611.659 103.64 753.285 158.349C839.86 191.795 894.373 239.168 964.597 296.954C1074.75 387.597 1168.37 298.929 1254.36 214.879" stroke="url(#paint29_linear_121_1828)" stroke-miterlimit="10"/>
<path d="M-667.821 132.29C-563.639 52.8301 -459.611 19.1791 -345.818 97.8949C-275.466 146.551 -223.874 227.857 -132.968 230.986C30.494 236.654 152.13 108.513 309.005 84.019C452.144 61.679 605.123 74.0673 743.213 115.516C841.526 145.037 891.733 198.72 961.034 270.382C986.92 297.16 1016.03 325.04 1054.91 329.246C1132.26 337.582 1204.61 260.867 1254.36 214.802" stroke="url(#paint30_linear_121_1828)" stroke-miterlimit="10"/>
<path d="M-667.821 133.47C-570.892 56.5748 -467.351 7.71408 -351.02 72.0923C-279.054 111.925 -229 179.535 -143.169 184.536C16.5261 193.847 151.053 108.206 304.674 84.3267C442.481 62.9101 598.639 45.0586 736.267 74.6059C842.141 97.3306 889.76 160.709 953.935 241.707C978.513 272.742 1006.35 308.445 1046.97 318.192C1125.44 337.018 1202.87 259.636 1254.33 214.519" stroke="url(#paint31_linear_121_1828)" stroke-miterlimit="10"/>
<path d="M-667.821 133.265C-573.224 55.2925 -468.094 -5.05885 -346.305 46.9567C-279.9 75.3242 -230.487 127.314 -156.598 134.547C2.19955 150.116 146.594 107.872 301.65 85.0963C383.355 73.0927 463.856 61.1917 544.87 44.8535C607.84 32.1574 669.042 25.5657 733.064 34.7479C843.679 50.5988 890.401 129.699 947.759 215.879C970.722 250.377 998.325 293.21 1040.05 306.932C1120.01 333.247 1199.77 258.353 1254.36 212.878" stroke="url(#paint32_linear_121_1828)" stroke-miterlimit="10"/>
<path d="M-667.821 130.597C-576.71 53.0867 -471.528 -18.7296 -346.997 14.4854C-280.976 32.1061 -227.693 73.0927 -159.084 81.762C-2.56752 101.511 142.442 106 298.83 84.1986C381.638 72.6567 459.268 55.6516 538.257 28.2588C599.075 7.17554 657.432 -10.1117 722.633 -5.49491C838.732 2.71268 885.89 96.1509 938.301 186.896C960.624 225.549 987.586 275.281 1030.85 294.082C1112.35 329.503 1196.33 255.07 1254.41 208.979" stroke="url(#paint33_linear_121_1828)" stroke-miterlimit="10"/>
<path d="M-667.821 124.364C-577.991 46.1359 -473.22 -33.7598 -347.202 -21.6536C-279.541 -15.1645 -217.621 16.8451 -150.447 26.7455C3.09655 49.3933 138.162 101.075 295.883 81.8132C379.331 71.605 454.322 49.8036 529.518 12.5104C586.158 -15.5749 640.133 -43.9936 705.026 -44.8144C831.172 -46.3533 878.816 63.9104 929.613 161.17C951.552 203.183 977.924 257.84 1022.62 280.36C1105.56 322.167 1193 248.53 1254.36 201.67" stroke="url(#paint34_linear_121_1828)" stroke-miterlimit="10"/>
<path d="M-667.821 113.464C-576.146 32.6959 -471.093 -52.4064 -343.844 -60.8192C-275.235 -65.359 -203.012 -44.9427 -136.249 -31.0924C13.912 0.0451548 138.931 94.7658 298.395 77.5299C380.382 68.6811 452.784 41.9808 521.522 -3.05834C576.983 -39.4025 627.805 -78.3629 696.67 -82.3898C825.559 -89.9048 872.768 38.1591 919.797 135.342C942.146 181.484 967.8 237.296 1013.88 264.611C1096.64 313.652 1192.05 236.167 1254.36 189.999" stroke="url(#paint35_linear_121_1828)" stroke-miterlimit="10"/>
<path d="M-667.821 96.7408C-510.946 -41.1466 -345.613 -147.46 -132.046 -95.8039C19.9861 -59.0237 137.085 84.0191 302.034 70.5278C385.61 63.6796 456.013 30.1055 519.599 -23.0642C569.396 -64.6921 613.76 -110.347 681.703 -117.708C811.284 -131.738 858.774 -0.570331 903.189 96.4843C927.434 149.449 953.679 215.699 1006.3 247.247C1091.13 298.109 1189.65 219.957 1254.33 172.866" stroke="url(#paint36_linear_121_1828)" stroke-miterlimit="10"/>
<path d="M-667.821 74.016C-516.866 -55.0482 -322.675 -197.809 -111.491 -138.612C36.7474 -97.0608 148.747 61.166 311.671 52.8045C393.145 48.6238 462.369 9.56087 519.881 -45.789C565.501 -89.6739 606.277 -139.176 673.374 -146.614C797.675 -160.439 848.266 -30.9641 892.066 61.0891C918.285 116.157 945.759 183.562 999.683 217.444C1086.03 271.691 1185.75 197.617 1254.33 149.808" stroke="url(#paint37_linear_121_1828)" stroke-miterlimit="10"/>
<path d="M-667.821 50.2653C-516.328 -73.3101 -317.446 -209.761 -109.594 -158.515C43.1804 -120.863 164.201 36.1585 329.611 25.4117C404.576 20.5385 467.393 -15.9083 520.035 -67.3083C562.041 -108.321 598.87 -155.052 660.2 -165.081C782.528 -185.087 842.961 -52.3551 890.426 35.6712C917.696 86.1991 947.272 144.755 996.761 177.355C1083.31 234.372 1180.7 171.25 1254.36 123.8" stroke="url(#paint38_linear_121_1828)" stroke-miterlimit="10"/>
<path d="M-667.821 26.5146C-513.457 -92.7005 -304.888 -224.535 -98.574 -172.006C51.433 -133.815 179.835 9.50954 341.708 0.712035C410.727 -3.03267 471.16 -39.8386 519.42 -86.6731C558.094 -124.197 592.514 -168.903 648.078 -180.676C768.483 -206.17 837.733 -72.4124 890.17 11.0998C921.694 61.2943 954.653 116.542 1008.78 144.935C1094.43 189.846 1179.62 140.267 1254.36 95.8687" stroke="url(#paint39_linear_121_1828)" stroke-miterlimit="10"/>
<path d="M-667.821 2.76399C-508.511 -112.732 -294.867 -234.025 -88.758 -182.933C59.8137 -146.101 193.674 -13.3947 353.062 -24.2954C417.262 -28.6813 472.134 -60.973 518.01 -104.14C556.582 -140.433 591.233 -184.677 646.335 -194.859C760.82 -216.045 835.401 -90.4434 891.272 -12.6252C923.334 32.0291 957.318 77.5812 1006.19 104.641C1091.23 151.68 1176.93 108.616 1254.36 66.3471" stroke="url(#paint40_linear_121_1828)" stroke-miterlimit="10"/>
<path d="M-667.821 -20.9867C-507.409 -129.096 -300.429 -233.461 -99.2916 -195.526C56.3793 -166.158 197.057 -35.9656 360.545 -47.4305C422.542 -51.7908 475.338 -83.4413 520.496 -124.12C557.428 -157.412 590.976 -195.783 642.157 -205.452C748.108 -225.484 826.994 -117.298 885.223 -46.6098C923.334 -0.313895 964.981 50.4962 1022.01 74.1699C1102.63 107.641 1182.01 71.8872 1254.38 35.6199" stroke="url(#paint41_linear_121_1828)" stroke-miterlimit="10"/>
<path d="M-667.821 -44.7374C-503.411 -146.46 -292.15 -239.796 -92.8844 -201.656C59.0191 -172.571 206.617 -57.0488 365.492 -68.7703C480.874 -77.2856 531.235 -190.473 635.238 -213.403C739.804 -236.436 824.944 -134.508 889.222 -68.5394C927.87 -28.8609 968.21 12.8182 1020.39 34.3631C1101.17 67.7064 1179.57 38.1335 1254.33 4.02073" stroke="url(#paint42_linear_121_1828)" stroke-miterlimit="10"/>
<path d="M-667.821 -68.4881C-499.08 -162.901 -291.817 -239.539 -94.4221 -207.76C58.7116 -183.112 209.026 -78.3885 367.593 -90.2638C476.517 -98.4201 534.746 -200.117 635.289 -219.841C733.32 -239.052 817.665 -158.13 884.993 -99.01C926.563 -62.4863 969.338 -24.1671 1021.7 -3.87902C1101.89 27.2072 1178.6 3.35392 1254.38 -28.0144" stroke="url(#paint43_linear_121_1828)" stroke-miterlimit="10"/>
</g>
</g>
<defs>
<linearGradient id="paint0_linear_121_1828" x1="293.269" y1="804.582" x2="293.269" y2="957.455" gradientUnits="userSpaceOnUse">
<stop stop-color="#333333"/>
<stop offset="1" stop-color="#333333" stop-opacity="0"/>
</linearGradient>
<linearGradient id="paint1_linear_121_1828" x1="293.269" y1="751.824" x2="293.269" y2="942.264" gradientUnits="userSpaceOnUse">
<stop stop-color="#333333"/>
<stop offset="1" stop-color="#333333" stop-opacity="0"/>
</linearGradient>
<linearGradient id="paint2_linear_121_1828" x1="293.256" y1="704.685" x2="293.256" y2="928.813" gradientUnits="userSpaceOnUse">
<stop stop-color="#333333"/>
<stop offset="1" stop-color="#333333" stop-opacity="0"/>
</linearGradient>
<linearGradient id="paint3_linear_121_1828" x1="293.269" y1="662.861" x2="293.269" y2="916.655" gradientUnits="userSpaceOnUse">
<stop stop-color="#333333"/>
<stop offset="1" stop-color="#333333" stop-opacity="0"/>
</linearGradient>
<linearGradient id="paint4_linear_121_1828" x1="293.269" y1="621.197" x2="293.269" y2="905.293" gradientUnits="userSpaceOnUse">
<stop stop-color="#333333"/>
<stop offset="1" stop-color="#333333" stop-opacity="0"/>
</linearGradient>
<linearGradient id="paint5_linear_121_1828" x1="293.269" y1="580.397" x2="293.269" y2="894.325" gradientUnits="userSpaceOnUse">
<stop stop-color="#333333"/>
<stop offset="1" stop-color="#333333" stop-opacity="0"/>
</linearGradient>
<linearGradient id="paint6_linear_121_1828" x1="293.256" y1="543.147" x2="293.256" y2="882.924" gradientUnits="userSpaceOnUse">
<stop stop-color="#333333"/>
<stop offset="1" stop-color="#333333" stop-opacity="0"/>
</linearGradient>
<linearGradient id="paint7_linear_121_1828" x1="293.269" y1="507.476" x2="293.269" y2="871.208" gradientUnits="userSpaceOnUse">
<stop stop-color="#333333"/>
<stop offset="1" stop-color="#333333" stop-opacity="0"/>
</linearGradient>
<linearGradient id="paint8_linear_121_1828" x1="293.269" y1="473.304" x2="293.269" y2="858.902" gradientUnits="userSpaceOnUse">
<stop stop-color="#333333"/>
<stop offset="1" stop-color="#333333" stop-opacity="0"/>
</linearGradient>
<linearGradient id="paint9_linear_121_1828" x1="293.282" y1="439.449" x2="293.282" y2="845.387" gradientUnits="userSpaceOnUse">
<stop stop-color="#333333"/>
<stop offset="1" stop-color="#333333" stop-opacity="0"/>
</linearGradient>
<linearGradient id="paint10_linear_121_1828" x1="293.269" y1="415.805" x2="293.269" y2="819.968" gradientUnits="userSpaceOnUse">
<stop stop-color="#333333"/>
<stop offset="1" stop-color="#333333" stop-opacity="0"/>
</linearGradient>
<linearGradient id="paint11_linear_121_1828" x1="293.282" y1="399.878" x2="293.282" y2="786.95" gradientUnits="userSpaceOnUse">
<stop stop-color="#333333"/>
<stop offset="1" stop-color="#333333" stop-opacity="0"/>
</linearGradient>
<linearGradient id="paint12_linear_121_1828" x1="293.282" y1="384.077" x2="293.282" y2="757.564" gradientUnits="userSpaceOnUse">
<stop stop-color="#333333"/>
<stop offset="1" stop-color="#333333" stop-opacity="0"/>
</linearGradient>
<linearGradient id="paint13_linear_121_1828" x1="293.256" y1="365.648" x2="293.256" y2="731.719" gradientUnits="userSpaceOnUse">
<stop stop-color="#333333"/>
<stop offset="1" stop-color="#333333" stop-opacity="0"/>
</linearGradient>
<linearGradient id="paint14_linear_121_1828" x1="293.269" y1="347.525" x2="293.269" y2="709.442" gradientUnits="userSpaceOnUse">
<stop stop-color="#333333"/>
<stop offset="1" stop-color="#333333" stop-opacity="0"/>
</linearGradient>
<linearGradient id="paint15_linear_121_1828" x1="293.282" y1="327.068" x2="293.282" y2="689.652" gradientUnits="userSpaceOnUse">
<stop stop-color="#333333"/>
<stop offset="1" stop-color="#333333" stop-opacity="0"/>
</linearGradient>
<linearGradient id="paint16_linear_121_1828" x1="293.282" y1="306.196" x2="293.282" y2="673.625" gradientUnits="userSpaceOnUse">
<stop stop-color="#333333"/>
<stop offset="1" stop-color="#333333" stop-opacity="0"/>
</linearGradient>
<linearGradient id="paint17_linear_121_1828" x1="293.282" y1="283.938" x2="293.282" y2="659.007" gradientUnits="userSpaceOnUse">
<stop stop-color="#333333"/>
<stop offset="1" stop-color="#333333" stop-opacity="0"/>
</linearGradient>
<linearGradient id="paint18_linear_121_1828" x1="293.282" y1="258.793" x2="293.282" y2="644.063" gradientUnits="userSpaceOnUse">
<stop stop-color="#333333"/>
<stop offset="1" stop-color="#333333" stop-opacity="0"/>
</linearGradient>
<linearGradient id="paint19_linear_121_1828" x1="293.269" y1="231.893" x2="293.269" y2="626.385" gradientUnits="userSpaceOnUse">
<stop stop-color="#333333"/>
<stop offset="1" stop-color="#333333" stop-opacity="0"/>
</linearGradient>
<linearGradient id="paint20_linear_121_1828" x1="293.282" y1="206.284" x2="293.282" y2="602.644" gradientUnits="userSpaceOnUse">
<stop stop-color="#333333"/>
<stop offset="1" stop-color="#333333" stop-opacity="0"/>
</linearGradient>
<linearGradient id="paint21_linear_121_1828" x1="293.256" y1="180.77" x2="293.256" y2="571.705" gradientUnits="userSpaceOnUse">
<stop stop-color="#333333"/>
<stop offset="1" stop-color="#333333" stop-opacity="0"/>
</linearGradient>
<linearGradient id="paint22_linear_121_1828" x1="293.269" y1="148.456" x2="293.269" y2="530.516" gradientUnits="userSpaceOnUse">
<stop stop-color="#333333"/>
<stop offset="1" stop-color="#333333" stop-opacity="0"/>
</linearGradient>
<linearGradient id="paint23_linear_121_1828" x1="293.269" y1="111.891" x2="293.269" y2="475.749" gradientUnits="userSpaceOnUse">
<stop stop-color="#333333"/>
<stop offset="1" stop-color="#333333" stop-opacity="0"/>
</linearGradient>
<linearGradient id="paint24_linear_121_1828" x1="293.269" y1="94.9958" x2="293.269" y2="448.703" gradientUnits="userSpaceOnUse">
<stop stop-color="#333333"/>
<stop offset="1" stop-color="#333333" stop-opacity="0"/>
</linearGradient>
<linearGradient id="paint25_linear_121_1828" x1="293.256" y1="82.4922" x2="293.256" y2="419.225" gradientUnits="userSpaceOnUse">
<stop stop-color="#333333"/>
<stop offset="1" stop-color="#333333" stop-opacity="0"/>
</linearGradient>
<linearGradient id="paint26_linear_121_1828" x1="293.269" y1="73.4679" x2="293.269" y2="389.291" gradientUnits="userSpaceOnUse">
<stop stop-color="#333333"/>
<stop offset="1" stop-color="#333333" stop-opacity="0"/>
</linearGradient>
<linearGradient id="paint27_linear_121_1828" x1="293.256" y1="66.6965" x2="293.256" y2="367.522" gradientUnits="userSpaceOnUse">
<stop stop-color="#333333"/>
<stop offset="1" stop-color="#333333" stop-opacity="0"/>
</linearGradient>
<linearGradient id="paint28_linear_121_1828" x1="293.282" y1="67.2205" x2="293.282" y2="349.632" gradientUnits="userSpaceOnUse">
<stop stop-color="#333333"/>
<stop offset="1" stop-color="#333333" stop-opacity="0"/>
</linearGradient>
<linearGradient id="paint29_linear_121_1828" x1="293.269" y1="61.0151" x2="293.269" y2="335.086" gradientUnits="userSpaceOnUse">
<stop stop-color="#333333"/>
<stop offset="1" stop-color="#333333" stop-opacity="0"/>
</linearGradient>
<linearGradient id="paint30_linear_121_1828" x1="293.269" y1="53.1099" x2="293.269" y2="329.873" gradientUnits="userSpaceOnUse">
<stop stop-color="#333333"/>
<stop offset="1" stop-color="#333333" stop-opacity="0"/>
</linearGradient>
<linearGradient id="paint31_linear_121_1828" x1="293.256" y1="42.2808" x2="293.256" y2="321.088" gradientUnits="userSpaceOnUse">
<stop stop-color="#333333"/>
<stop offset="1" stop-color="#333333" stop-opacity="0"/>
</linearGradient>
<linearGradient id="paint32_linear_121_1828" x1="293.269" y1="27.5073" x2="293.269" y2="312.394" gradientUnits="userSpaceOnUse">
<stop stop-color="#333333"/>
<stop offset="1" stop-color="#333333" stop-opacity="0"/>
</linearGradient>
<linearGradient id="paint33_linear_121_1828" x1="293.294" y1="-6.24744" x2="293.294" y2="303.338" gradientUnits="userSpaceOnUse">
<stop stop-color="#333333"/>
<stop offset="1" stop-color="#333333" stop-opacity="0"/>
</linearGradient>
<linearGradient id="paint34_linear_121_1828" x1="293.269" y1="-44.8303" x2="293.269" y2="292.744" gradientUnits="userSpaceOnUse">
<stop stop-color="#333333"/>
<stop offset="1" stop-color="#333333" stop-opacity="0"/>
</linearGradient>
<linearGradient id="paint35_linear_121_1828" x1="293.269" y1="-82.7058" x2="293.269" y2="280.296" gradientUnits="userSpaceOnUse">
<stop stop-color="#333333"/>
<stop offset="1" stop-color="#333333" stop-opacity="0"/>
</linearGradient>
<linearGradient id="paint36_linear_121_1828" x1="293.256" y1="-118.746" x2="293.256" y2="263.815" gradientUnits="userSpaceOnUse">
<stop stop-color="#333333"/>
<stop offset="1" stop-color="#333333" stop-opacity="0"/>
</linearGradient>
<linearGradient id="paint37_linear_121_1828" x1="293.256" y1="-152.399" x2="293.256" y2="236.485" gradientUnits="userSpaceOnUse">
<stop stop-color="#333333"/>
<stop offset="1" stop-color="#333333" stop-opacity="0"/>
</linearGradient>
<linearGradient id="paint38_linear_121_1828" x1="293.269" y1="-169.585" x2="293.269" y2="199.975" gradientUnits="userSpaceOnUse">
<stop stop-color="#333333"/>
<stop offset="1" stop-color="#333333" stop-opacity="0"/>
</linearGradient>
<linearGradient id="paint39_linear_121_1828" x1="293.269" y1="-183.878" x2="293.269" y2="162.624" gradientUnits="userSpaceOnUse">
<stop stop-color="#333333"/>
<stop offset="1" stop-color="#333333" stop-opacity="0"/>
</linearGradient>
<linearGradient id="paint40_linear_121_1828" x1="293.269" y1="-197.231" x2="293.269" y2="125.119" gradientUnits="userSpaceOnUse">
<stop stop-color="#333333"/>
<stop offset="1" stop-color="#333333" stop-opacity="0"/>
</linearGradient>
<linearGradient id="paint41_linear_121_1828" x1="293.282" y1="-207.885" x2="293.282" y2="87.5126" gradientUnits="userSpaceOnUse">
<stop stop-color="#333333"/>
<stop offset="1" stop-color="#333333" stop-opacity="0"/>
</linearGradient>
<linearGradient id="paint42_linear_121_1828" x1="293.256" y1="-216.726" x2="293.256" y2="48.9728" gradientUnits="userSpaceOnUse">
<stop stop-color="#333333"/>
<stop offset="1" stop-color="#333333" stop-opacity="0"/>
</linearGradient>
<linearGradient id="paint43_linear_121_1828" x1="293.282" y1="-222.724" x2="293.282" y2="10.6519" gradientUnits="userSpaceOnUse">
<stop stop-color="#333333"/>
<stop offset="1" stop-color="#333333" stop-opacity="0"/>
</linearGradient>
<clipPath id="clip0_121_1828">
<rect width="586.667" height="814" fill="white" transform="translate(0.333008)"/>
</clipPath>
<clipPath id="clip1_121_1828">
<rect width="1924" height="1286" fill="white" transform="translate(-668.667 -237)"/>
</clipPath>
</defs>
</svg>
